<?xml version="1.0" standalone="no"?>
<!DOCTYPE svg PUBLIC "-//W3C//DTD SVG 20010904//EN"
 "http://www.w3.org/TR/2001/REC-SVG-20010904/DTD/svg10.dtd">
<svg version="1.0" xmlns="http://www.w3.org/2000/svg"
 width="1200.000000pt" height="1200.000000pt" viewBox="0 0 1200.000000 1200.000000"
 preserveAspectRatio="xMidYMid meet">
<metadata>
Created by potrace 1.14, written by Peter Selinger 2001-2017
</metadata>
<g transform="translate(0.000000,1200.000000) scale(0.100000,-0.100000)"
fill="#000000" stroke="none">
<path d="M4279 9357 c-47 -43 -185 -167 -213 -192 -30 -27 -159 -142 -200
-180 -212 -193 -198 -180 -416 -375 -146 -131 -291 -261 -316 -285 -18 -16
-47 -43 -65 -59 -19 -16 -72 -64 -119 -106 -47 -43 -96 -88 -110 -100 -28 -24
-78 -69 -195 -176 -44 -40 -90 -81 -101 -91 -36 -31 -175 -156 -209 -188 -18
-16 -63 -57 -100 -90 -38 -33 -83 -73 -100 -90 -18 -16 -61 -55 -95 -85 -34
-30 -79 -71 -99 -90 -20 -19 -55 -51 -77 -70 -319 -275 -434 -399 -521 -560
-40 -72 -100 -228 -109 -280 -36 -216 -38 -329 -7 -490 4 -19 8 -37 8 -40 5
-27 38 -129 45 -142 6 -10 10 -25 10 -33 0 -8 5 -15 10 -15 6 0 10 -6 10 -14
0 -25 77 -159 133 -229 75 -96 165 -190 177 -185 4 2 52 44 106 93 104 96 201
184 220 200 25 22 158 142 184 165 54 50 192 175 213 193 12 10 58 51 102 91
44 40 100 90 124 112 25 21 59 53 76 69 18 17 60 54 94 84 34 30 79 70 100 90
21 20 69 63 106 96 38 33 80 71 95 85 15 14 58 53 96 86 38 34 81 73 95 85 14
13 58 53 98 89 40 36 88 79 106 95 17 17 67 62 110 100 79 70 156 139 204 184
14 13 57 51 95 85 37 33 78 70 90 81 80 73 185 167 206 185 14 12 62 55 107
97 l81 75 0 219 c0 120 -2 219 -5 219 -6 0 -48 -36 -143 -124 -31 -28 -89 -80
-129 -116 -40 -36 -83 -74 -95 -85 -12 -11 -60 -54 -106 -95 -45 -41 -98 -89
-117 -107 -19 -17 -59 -53 -90 -80 -30 -26 -67 -59 -82 -73 -15 -14 -67 -61
-116 -105 -48 -44 -100 -91 -114 -103 -14 -13 -55 -49 -90 -80 -35 -32 -73
-66 -85 -77 -12 -11 -60 -55 -107 -97 -46 -42 -94 -85 -105 -95 -12 -10 -44
-38 -71 -63 -28 -25 -85 -76 -128 -115 -43 -38 -93 -83 -110 -100 -18 -16 -66
-59 -106 -95 -40 -36 -83 -74 -95 -85 -12 -11 -57 -51 -100 -90 -42 -38 -87
-79 -100 -90 -27 -25 -157 -142 -193 -173 -64 -58 -276 -250 -340 -309 -25
-23 -49 -39 -54 -36 -13 8 -56 108 -79 183 -15 47 -21 101 -23 197 -3 115 0
145 20 222 54 199 118 291 358 506 19 17 139 125 182 164 86 79 342 308 374
336 18 17 43 39 55 50 12 11 60 54 105 95 46 41 89 80 95 85 33 31 216 195
245 220 18 17 48 44 66 60 18 17 65 59 106 95 40 36 100 90 132 120 33 30 73
66 89 80 17 14 48 41 68 60 21 19 55 51 76 70 43 38 222 199 240 215 6 6 47
42 90 82 44 39 88 80 100 90 18 15 90 80 205 184 14 13 59 54 101 91 l74 67 1
221 c1 121 -2 220 -5 220 -4 0 -23 -15 -43 -33z"/>
<path d="M4283 6694 c-21 -20 -65 -59 -97 -88 -33 -28 -72 -62 -87 -76 -14
-14 -46 -43 -70 -65 -58 -52 -220 -197 -235 -210 -7 -5 -46 -41 -89 -80 -42
-38 -89 -81 -104 -95 -16 -14 -66 -59 -112 -101 -46 -42 -111 -100 -144 -129
-87 -78 -103 -92 -133 -120 -15 -14 -74 -67 -132 -119 -58 -52 -139 -125 -180
-162 -41 -37 -99 -89 -129 -116 -29 -26 -78 -71 -108 -98 l-55 -51 249 1 250
0 44 39 c24 22 84 76 133 120 50 45 117 106 151 136 33 30 101 92 150 136 50
45 110 99 134 120 25 22 59 53 77 69 18 17 64 59 104 95 39 35 82 73 94 85 12
11 60 54 106 95 46 41 98 88 115 104 16 15 43 39 59 52 25 22 29 32 32 92 1
37 6 114 9 172 9 146 13 230 9 230 -1 0 -20 -16 -41 -36z"/>
<path d="M842 4704 c-40 -7 -90 -18 -110 -24 -61 -20 -207 -83 -210 -92 -2 -4
-9 -8 -16 -8 -7 0 -21 -8 -32 -19 -11 -10 -31 -24 -43 -31 -13 -6 -37 -24 -54
-38 -197 -172 -317 -386 -361 -642 -27 -159 -10 -422 35 -538 6 -15 12 -34 14
-43 5 -26 72 -161 99 -202 14 -21 26 -40 26 -42 0 -9 46 -61 125 -141 81 -82
178 -152 270 -193 174 -79 233 -90 450 -87 99 2 187 5 195 8 8 3 32 8 53 13
91 18 262 109 325 172 18 19 38 34 44 36 7 1 10 -30 8 -90 l-1 -93 185 0 186
0 -2 1007 -3 1007 -175 -2 c-96 0 -178 -1 -182 -1 -5 -1 -8 -44 -8 -97 l0 -95
-57 48 c-64 54 -96 76 -161 110 -46 23 -150 59 -194 67 -15 3 -32 8 -38 11
-22 13 -294 13 -368 -1z m293 -346 c143 -24 249 -80 355 -187 297 -299 264
-836 -65 -1091 -53 -41 -150 -92 -200 -105 -16 -5 -34 -9 -40 -11 -92 -24
-231 -24 -320 0 -5 2 -23 6 -40 11 -53 14 -159 74 -213 121 -93 81 -174 213
-210 344 -26 89 -33 226 -19 325 5 33 9 70 10 82 1 13 5 23 10 23 4 0 6 3 5 8
-7 28 58 165 117 246 75 102 218 198 330 222 11 2 33 7 48 12 42 11 164 11
232 0z"/>
<path d="M5478 4715 c-2 -2 -21 -5 -43 -8 -173 -24 -361 -106 -483 -212 -59
-50 -72 -65 -182 -202 -20 -25 -88 -162 -108 -218 -52 -147 -67 -244 -67 -435
1 -138 5 -187 25 -275 19 -89 64 -214 90 -255 6 -8 13 -22 17 -30 18 -41 92
-139 147 -195 182 -185 439 -283 743 -283 133 1 202 9 313 37 85 22 234 96
315 156 63 47 195 173 195 187 0 4 -55 61 -122 127 l-123 120 -67 -66 c-125
-124 -232 -182 -393 -210 -67 -12 -278 -5 -303 11 -4 3 -20 7 -34 10 -34 6
-146 59 -176 82 -51 41 -91 81 -126 127 -37 50 -86 147 -86 171 0 7 -3 16 -7
20 -4 3 -8 12 -9 19 -1 7 -9 43 -17 80 -12 61 -12 69 1 74 8 4 360 7 781 7
l766 1 0 140 c-1 177 -11 249 -57 390 -19 58 -93 215 -106 225 -4 3 -19 24
-34 47 -24 36 -128 146 -170 178 -100 79 -250 145 -383 171 -38 7 -291 15
-297 9z m237 -359 c11 -2 33 -8 48 -15 16 -6 32 -11 37 -11 12 0 74 -35 125
-70 104 -72 197 -224 207 -340 l3 -35 -572 0 c-639 0 -586 -7 -558 73 72 207
241 351 465 396 57 12 186 13 245 2z"/>
<path d="M7948 4695 c-1 -2 -34 -6 -73 -8 -82 -7 -109 -12 -172 -33 -52 -18
-155 -65 -163 -74 -3 -3 -21 -17 -40 -30 -19 -13 -51 -41 -71 -62 -20 -21 -38
-38 -41 -38 -3 0 -5 45 -4 101 1 55 -3 103 -8 106 -5 3 -89 6 -187 7 l-179 1
-1 -45 c-1 -60 -1 -1919 0 -1947 1 -23 1 -23 186 -23 102 0 185 3 186 8 0 4 2
293 3 642 1 349 6 651 11 670 17 74 71 175 122 225 67 67 88 82 151 105 87 33
132 40 242 36 109 -4 174 -22 245 -70 96 -64 160 -175 180 -310 3 -22 6 -325
6 -673 l1 -633 184 0 c140 0 184 3 185 13 4 78 0 1328 -5 1372 -27 229 -128
411 -294 527 -41 29 -159 87 -184 92 -7 1 -22 5 -33 9 -35 11 -78 18 -150 23
-38 3 -75 7 -82 9 -6 2 -13 2 -15 0z"/>
<path d="M2504 4659 c-2 -3 7 -19 21 -35 13 -16 107 -141 209 -279 103 -137
192 -257 199 -265 7 -8 23 -31 37 -50 13 -19 28 -39 32 -45 5 -5 52 -68 104
-138 l96 -128 -28 -42 c-15 -23 -54 -78 -86 -122 -33 -44 -121 -168 -197 -275
-76 -107 -146 -203 -155 -212 -9 -10 -16 -22 -16 -28 0 -5 -3 -10 -8 -10 -4 0
-12 -9 -17 -19 -6 -11 -44 -66 -85 -123 -41 -56 -82 -112 -90 -124 -8 -12 -29
-43 -47 -68 l-32 -46 207 0 c203 0 208 0 224 23 9 12 60 83 112 157 52 74 101
142 109 150 7 8 30 41 52 73 21 31 42 57 47 57 4 0 8 5 8 10 0 12 100 153 112
158 5 2 8 8 8 13 0 6 5 15 11 22 5 7 25 33 43 59 18 25 37 43 42 40 6 -4 26
-29 44 -57 19 -27 37 -51 42 -53 4 -2 8 -8 8 -13 0 -5 33 -54 73 -109 39 -55
109 -153 155 -217 46 -65 110 -156 143 -203 33 -47 66 -91 73 -98 9 -9 62 -12
220 -10 l208 3 -26 30 c-14 17 -26 33 -26 36 0 3 -8 15 -17 27 -10 11 -25 30
-33 42 -8 12 -40 56 -70 99 -31 42 -75 104 -98 137 -23 34 -47 68 -54 76 -7 7
-31 40 -53 73 -22 33 -42 62 -46 65 -3 3 -27 37 -54 75 -67 97 -99 139 -107
143 -5 2 -8 8 -8 12 0 5 -38 62 -85 126 -47 65 -85 121 -85 125 0 5 9 18 52
74 23 29 65 85 78 105 8 12 23 31 32 43 18 23 404 543 436 586 9 13 23 30 30
37 6 7 12 17 12 23 0 6 4 11 8 11 7 0 42 52 42 62 0 3 -314 2 -395 -2 -26 -1
-38 -13 -90 -87 -33 -47 -65 -91 -70 -97 -6 -6 -80 -105 -165 -221 -85 -115
-162 -218 -171 -228 -17 -18 -18 -18 -28 0 -9 17 -404 551 -428 578 -5 6 -16
21 -25 34 l-17 24 -207 1 c-113 1 -208 -2 -210 -5z"/>
<path d="M9293 4662 l-22 -3 0 -1005 0 -1004 188 0 187 0 0 1005 1 1005 -26 1
c-95 3 -310 3 -328 1z"/>
<path d="M10130 4650 c10 -19 131 -184 164 -225 13 -16 48 -62 78 -102 205
-278 364 -489 370 -491 5 -2 8 -10 8 -17 0 -7 3 -15 8 -17 4 -1 20 -20 35 -41
l29 -38 -46 -67 c-25 -37 -63 -90 -84 -119 -95 -131 -178 -247 -187 -262 -5
-9 -12 -18 -16 -21 -3 -3 -25 -34 -50 -70 -24 -36 -48 -70 -54 -76 -12 -13
-27 -34 -115 -159 -39 -55 -76 -107 -83 -116 -13 -16 -31 -41 -90 -126 l-37
-53 209 0 208 0 29 43 c16 23 31 44 34 47 5 4 126 172 251 349 14 20 73 102
132 184 l106 147 25 -32 c66 -86 96 -129 96 -137 0 -5 3 -11 8 -13 4 -1 45
-57 92 -123 46 -66 87 -122 90 -125 3 -3 10 -12 15 -21 20 -33 110 -161 123
-174 6 -8 12 -16 12 -19 0 -3 7 -14 15 -23 8 -10 28 -37 45 -60 l30 -43 211 0
c199 0 211 1 198 17 -8 10 -17 22 -22 28 -6 8 -262 368 -307 432 -95 134 -135
189 -142 191 -4 2 -8 9 -8 15 -1 7 -14 28 -30 47 -17 19 -30 40 -30 46 0 7 -4
14 -8 16 -10 3 -191 253 -198 272 -3 9 43 75 179 257 10 13 89 121 177 239 88
118 163 220 168 225 28 35 154 209 158 218 4 10 -181 14 -388 8 -22 -1 -39
-16 -85 -78 -32 -43 -62 -82 -66 -88 -7 -9 -212 -286 -254 -343 -9 -13 -24
-32 -32 -42 -9 -11 -29 -37 -45 -59 l-29 -39 -23 28 c-13 15 -24 31 -24 34 0
3 -8 15 -17 25 -23 25 -49 58 -96 123 -21 29 -97 132 -169 228 -71 96 -136
184 -143 194 -13 17 -30 19 -223 20 -184 1 -209 -1 -202 -14z"/>
</g>
</svg>
