<?xml version="1.0" encoding="utf-8"?>
<!-- Generator: Adobe Illustrator 26.2.1, SVG Export Plug-In . SVG Version: 6.00 Build 0)  -->
<svg version="1.1" id="Layer_1" xmlns="http://www.w3.org/2000/svg" xmlns:xlink="http://www.w3.org/1999/xlink" x="0px" y="0px"
	 viewBox="0 0 150 84.97" style="enable-background:new 0 0 150 84.97;" xml:space="preserve">
<style type="text/css">
	.st0{fill:#F37022;}
	.st1{fill:#FFFFFF;}
</style>
<g>
	<g>
		<path class="st0" d="M20.75,61.71c-0.57-0.64-1.29-1.26-2.17-1.77c-1.48-0.87-3.42-1.45-5.87-1.45c-3.51,0-6.7,1.41-9,3.78
			C1.41,64.63,0,67.96,0,71.77s1.41,7.14,3.72,9.51c2.3,2.37,5.49,3.78,9,3.78c2.45,0,4.39-0.58,5.87-1.45
			c0.88-0.52,1.6-1.13,2.17-1.77v2.51h4.63V59.2h-4.63L20.75,61.71L20.75,61.71z M12.76,80.67c-2.34,0-4.34-0.95-5.78-2.53
			s-2.3-3.81-2.3-6.37c0-2.56,0.87-4.79,2.3-6.37c1.44-1.58,3.44-2.53,5.78-2.53c2.42,0,4.51,0.95,6.01,2.54
			c1.5,1.58,2.41,3.81,2.41,6.36s-0.91,4.77-2.41,6.36S15.18,80.67,12.76,80.67z"/>
		<polygon class="st0" points="53.97,59.2 52.93,59.2 48.65,59.2 42.6,67.36 36.5,59.2 31.23,59.2 40.04,71.02 30.49,84.35 
			35.69,84.35 42.64,74.68 49.5,84.35 54.75,84.35 45.2,70.97 		"/>
		<path class="st1" d="M74.77,59.47c-1.42-0.64-3.03-0.99-4.77-0.99c-3.59,0-6.77,1.32-9.02,3.67c-2.26,2.35-3.6,5.7-3.59,9.72v0.19
			c0,3.87,1.29,7.11,3.54,9.38s5.45,3.53,9.17,3.53c1.79,0,3.55-0.23,5.25-0.91s3.34-1.79,4.89-3.52l0.33-0.37l-3.13-3.06
			l-0.37,0.38c-0.98,1.03-1.92,1.82-3,2.36c-1.08,0.53-2.33,0.83-3.99,0.83c-1.21,0-2.3-0.2-3.26-0.58
			c-1.44-0.56-2.59-1.51-3.4-2.79c-0.74-1.15-1.2-2.59-1.34-4.25h19.44l0.03-0.49c0.05-0.74,0.05-1.56,0.05-1.56
			c0-3.44-1.14-6.56-3.17-8.84C77.43,61.03,76.19,60.11,74.77,59.47z M64.67,64.82c1.38-1.2,3.26-1.94,5.33-1.94
			c1.87,0,3.55,0.74,4.78,1.94c1.1,1.08,1.82,2.51,1.95,4.1H62.35C62.59,67.32,63.43,65.89,64.67,64.82z"/>
		<path class="st1" d="M105.03,60.36c-1.5-1-3.39-1.54-5.58-1.54c-1.95,0-3.66,0.49-5.05,1.33c-0.83,0.5-1.54,1.13-2.12,1.85v-2.8
			H87.6v25.14h4.68V69.43c0-1.89,0.65-3.43,1.73-4.51c1.09-1.08,2.64-1.71,4.53-1.71c0.91,0,1.72,0.15,2.42,0.42
			c1.05,0.41,1.87,1.1,2.43,2.03c0.57,0.93,0.88,2.12,0.88,3.53v15.15h4.63V68.43c0-1.4-0.22-2.71-0.64-3.88
			C107.64,62.8,106.53,61.35,105.03,60.36z"/>
		<polygon class="st1" points="115.9,84.35 116.42,84.35 120.58,84.35 120.58,59.2 115.9,59.2 		"/>
		<polygon class="st1" points="140.45,70.97 149.21,59.2 143.89,59.2 137.84,67.36 131.75,59.2 126.48,59.2 135.29,71.02 
			125.74,84.35 130.94,84.35 137.89,74.68 144.75,84.35 150,84.35 		"/>
	</g>
	<g>
		<path class="st0" d="M20.61,46.64c-0.33-0.57-0.61-1.17-0.82-1.78c-0.65-1.87-0.73-3.89-0.26-5.8c0.47-1.9,1.49-3.68,3.06-5.09
			l31.5-28.35V0L19.81,30.87c-1.47,1.32-2.61,2.89-3.4,4.58c-1.19,2.54-1.6,5.35-1.21,8.08c0.38,2.73,1.56,5.4,3.55,7.6l0,0
			l1.4,1.55L54.1,22.11V16.5L20.61,46.64z"/>
		<polygon class="st0" points="38.82,52.68 53.78,39.21 54.09,33.31 32.58,52.68 		"/>
	</g>
</g>
</svg>
